<svg xmlns="http://www.w3.org/2000/svg" viewBox="0 0 24 24" width="24" height="24" shape-rendering="crispEdges">
  <!-- Pixel flame/fire -->
  <!-- Flame tip -->
  <rect x="10" y="0" width="2" height="2" fill="#FF4500"/>
  <rect x="12" y="0" width="2" height="2" fill="#FF4500"/>
  <rect x="10" y="2" width="2" height="2" fill="#FF6633"/>
  <rect x="12" y="2" width="2" height="2" fill="#FF4500"/>
  <!-- Upper flame -->
  <rect x="8" y="4" width="2" height="2" fill="#FF4500"/>
  <rect x="10" y="4" width="2" height="2" fill="#FF6633"/>
  <rect x="12" y="4" width="2" height="2" fill="#FF6633"/>
  <rect x="14" y="4" width="2" height="2" fill="#FF4500"/>
  <rect x="8" y="6" width="2" height="2" fill="#FF4500"/>
  <rect x="10" y="6" width="2" height="2" fill="#FF8C00"/>
  <rect x="12" y="6" width="2" height="2" fill="#FF6633"/>
  <rect x="14" y="6" width="2" height="2" fill="#FF4500"/>
  <!-- Mid flame wider -->
  <rect x="6" y="8" width="2" height="2" fill="#FF4500"/>
  <rect x="8" y="8" width="2" height="2" fill="#FF6633"/>
  <rect x="10" y="8" width="2" height="2" fill="#FFA500"/>
  <rect x="12" y="8" width="2" height="2" fill="#FF8C00"/>
  <rect x="14" y="8" width="2" height="2" fill="#FF6633"/>
  <rect x="16" y="8" width="2" height="2" fill="#FF4500"/>
  <rect x="6" y="10" width="2" height="2" fill="#FF4500"/>
  <rect x="8" y="10" width="2" height="2" fill="#FF8C00"/>
  <rect x="10" y="10" width="2" height="2" fill="#FFD700"/>
  <rect x="12" y="10" width="2" height="2" fill="#FFA500"/>
  <rect x="14" y="10" width="2" height="2" fill="#FF8C00"/>
  <rect x="16" y="10" width="2" height="2" fill="#FF4500"/>
  <!-- Lower flame -->
  <rect x="4" y="12" width="2" height="2" fill="#FF4500"/>
  <rect x="6" y="12" width="2" height="2" fill="#FF6633"/>
  <rect x="8" y="12" width="2" height="2" fill="#FFA500"/>
  <rect x="10" y="12" width="2" height="2" fill="#FFD700"/>
  <rect x="12" y="12" width="2" height="2" fill="#FFD700"/>
  <rect x="14" y="12" width="2" height="2" fill="#FFA500"/>
  <rect x="16" y="12" width="2" height="2" fill="#FF6633"/>
  <rect x="18" y="12" width="2" height="2" fill="#FF4500"/>
  <rect x="4" y="14" width="2" height="2" fill="#FF4500"/>
  <rect x="6" y="14" width="2" height="2" fill="#FF6633"/>
  <rect x="8" y="14" width="2" height="2" fill="#FFD700"/>
  <rect x="10" y="14" width="2" height="2" fill="#FFEB3B"/>
  <rect x="12" y="14" width="2" height="2" fill="#FFEB3B"/>
  <rect x="14" y="14" width="2" height="2" fill="#FFD700"/>
  <rect x="16" y="14" width="2" height="2" fill="#FF6633"/>
  <rect x="18" y="14" width="2" height="2" fill="#FF4500"/>
  <!-- Base -->
  <rect x="4" y="16" width="2" height="2" fill="#FF4500"/>
  <rect x="6" y="16" width="2" height="2" fill="#FF8C00"/>
  <rect x="8" y="16" width="2" height="2" fill="#FFA500"/>
  <rect x="10" y="16" width="2" height="2" fill="#FFEB3B"/>
  <rect x="12" y="16" width="2" height="2" fill="#FFEB3B"/>
  <rect x="14" y="16" width="2" height="2" fill="#FFA500"/>
  <rect x="16" y="16" width="2" height="2" fill="#FF8C00"/>
  <rect x="18" y="16" width="2" height="2" fill="#FF4500"/>
  <!-- Bottom -->
  <rect x="6" y="18" width="2" height="2" fill="#FF4500"/>
  <rect x="8" y="18" width="2" height="2" fill="#FF6633"/>
  <rect x="10" y="18" width="2" height="2" fill="#FFA500"/>
  <rect x="12" y="18" width="2" height="2" fill="#FFA500"/>
  <rect x="14" y="18" width="2" height="2" fill="#FF6633"/>
  <rect x="16" y="18" width="2" height="2" fill="#FF4500"/>
  <rect x="8" y="20" width="2" height="2" fill="#FF4500"/>
  <rect x="10" y="20" width="2" height="2" fill="#FF4500"/>
  <rect x="12" y="20" width="2" height="2" fill="#FF4500"/>
  <rect x="14" y="20" width="2" height="2" fill="#FF4500"/>
</svg>