<svg xmlns="http://www.w3.org/2000/svg" viewBox="0 0 24 24" width="24" height="24" shape-rendering="crispEdges">
  <!-- Pixel lightbulb -->
  <!-- Bulb top -->
  <rect x="8" y="1" width="2" height="2" fill="#00D4FF"/>
  <rect x="10" y="1" width="2" height="2" fill="#00D4FF"/>
  <rect x="12" y="1" width="2" height="2" fill="#00D4FF"/>
  <rect x="14" y="1" width="2" height="2" fill="#00D4FF"/>
  <rect x="6" y="3" width="2" height="2" fill="#00D4FF"/>
  <rect x="8" y="3" width="2" height="2" fill="#66E5FF"/>
  <rect x="10" y="3" width="2" height="2" fill="#99EEFF"/>
  <rect x="12" y="3" width="2" height="2" fill="#66E5FF"/>
  <rect x="14" y="3" width="2" height="2" fill="#00D4FF"/>
  <rect x="16" y="3" width="2" height="2" fill="#00D4FF"/>
  <!-- Bulb body -->
  <rect x="4" y="5" width="2" height="2" fill="#00D4FF"/>
  <rect x="6" y="5" width="2" height="2" fill="#66E5FF"/>
  <rect x="8" y="5" width="2" height="2" fill="#99EEFF"/>
  <rect x="10" y="5" width="2" height="2" fill="#CCFFFF"/>
  <rect x="12" y="5" width="2" height="2" fill="#99EEFF"/>
  <rect x="14" y="5" width="2" height="2" fill="#66E5FF"/>
  <rect x="16" y="5" width="2" height="2" fill="#00D4FF"/>
  <rect x="18" y="5" width="2" height="2" fill="#00D4FF"/>
  <rect x="4" y="7" width="2" height="2" fill="#00D4FF"/>
  <rect x="6" y="7" width="2" height="2" fill="#66E5FF"/>
  <rect x="8" y="7" width="2" height="2" fill="#99EEFF"/>
  <rect x="10" y="7" width="2" height="2" fill="#CCFFFF"/>
  <rect x="12" y="7" width="2" height="2" fill="#99EEFF"/>
  <rect x="14" y="7" width="2" height="2" fill="#66E5FF"/>
  <rect x="16" y="7" width="2" height="2" fill="#00D4FF"/>
  <rect x="18" y="7" width="2" height="2" fill="#00D4FF"/>
  <rect x="4" y="9" width="2" height="2" fill="#00D4FF"/>
  <rect x="6" y="9" width="2" height="2" fill="#66E5FF"/>
  <rect x="8" y="9" width="2" height="2" fill="#66E5FF"/>
  <rect x="10" y="9" width="2" height="2" fill="#99EEFF"/>
  <rect x="12" y="9" width="2" height="2" fill="#66E5FF"/>
  <rect x="14" y="9" width="2" height="2" fill="#66E5FF"/>
  <rect x="16" y="9" width="2" height="2" fill="#00D4FF"/>
  <rect x="18" y="9" width="2" height="2" fill="#00D4FF"/>
  <!-- Narrowing toward base -->
  <rect x="6" y="11" width="2" height="2" fill="#00D4FF"/>
  <rect x="8" y="11" width="2" height="2" fill="#00D4FF"/>
  <rect x="10" y="11" width="2" height="2" fill="#66E5FF"/>
  <rect x="12" y="11" width="2" height="2" fill="#00D4FF"/>
  <rect x="14" y="11" width="2" height="2" fill="#00D4FF"/>
  <rect x="16" y="11" width="2" height="2" fill="#00D4FF"/>
  <rect x="8" y="13" width="2" height="2" fill="#00D4FF"/>
  <rect x="10" y="13" width="2" height="2" fill="#00D4FF"/>
  <rect x="12" y="13" width="2" height="2" fill="#00D4FF"/>
  <rect x="14" y="13" width="2" height="2" fill="#00D4FF"/>
  <!-- Base/screw -->
  <rect x="8" y="15" width="2" height="2" fill="#B0BEC5"/>
  <rect x="10" y="15" width="2" height="2" fill="#CFD8DC"/>
  <rect x="12" y="15" width="2" height="2" fill="#B0BEC5"/>
  <rect x="14" y="15" width="2" height="2" fill="#90A4AE"/>
  <rect x="8" y="17" width="2" height="2" fill="#90A4AE"/>
  <rect x="10" y="17" width="2" height="2" fill="#B0BEC5"/>
  <rect x="12" y="17" width="2" height="2" fill="#90A4AE"/>
  <rect x="14" y="17" width="2" height="2" fill="#78909C"/>
  <rect x="10" y="19" width="2" height="2" fill="#90A4AE"/>
  <rect x="12" y="19" width="2" height="2" fill="#78909C"/>
  <!-- Glow rays -->
  <rect x="1" y="6" width="2" height="2" fill="#00D4FF" opacity="0.4"/>
  <rect x="21" y="6" width="2" height="2" fill="#00D4FF" opacity="0.4"/>
  <rect x="2" y="1" width="2" height="2" fill="#00D4FF" opacity="0.3"/>
  <rect x="20" y="1" width="2" height="2" fill="#00D4FF" opacity="0.3"/>
</svg>