<svg xmlns="http://www.w3.org/2000/svg" viewBox="0 0 200 48" width="200" height="48" shape-rendering="crispEdges">
  <defs>
    <linearGradient id="textGrad" x1="0%" y1="0%" x2="100%" y2="0%">
      <stop offset="0%" stop-color="#6366F1"/>
      <stop offset="50%" stop-color="#A855F7"/>
      <stop offset="100%" stop-color="#EC4899"/>
    </linearGradient>
  </defs>
  <!-- V -->
  <rect x="4" y="8" width="3" height="3" fill="url(#textGrad)"/>
  <rect x="4" y="11" width="3" height="3" fill="url(#textGrad)"/>
  <rect x="7" y="14" width="3" height="3" fill="url(#textGrad)"/>
  <rect x="7" y="17" width="3" height="3" fill="url(#textGrad)"/>
  <rect x="10" y="20" width="3" height="3" fill="url(#textGrad)"/>
  <rect x="13" y="23" width="3" height="3" fill="url(#textGrad)"/>
  <rect x="16" y="20" width="3" height="3" fill="url(#textGrad)"/>
  <rect x="19" y="17" width="3" height="3" fill="url(#textGrad)"/>
  <rect x="19" y="14" width="3" height="3" fill="url(#textGrad)"/>
  <rect x="22" y="11" width="3" height="3" fill="url(#textGrad)"/>
  <rect x="22" y="8" width="3" height="3" fill="url(#textGrad)"/>
  <!-- I -->
  <rect x="30" y="8" width="3" height="3" fill="url(#textGrad)"/>
  <rect x="30" y="11" width="3" height="3" fill="url(#textGrad)"/>
  <rect x="30" y="14" width="3" height="3" fill="url(#textGrad)"/>
  <rect x="30" y="17" width="3" height="3" fill="url(#textGrad)"/>
  <rect x="30" y="20" width="3" height="3" fill="url(#textGrad)"/>
  <rect x="30" y="23" width="3" height="3" fill="url(#textGrad)"/>
  <!-- B -->
  <rect x="38" y="8" width="3" height="3" fill="url(#textGrad)"/>
  <rect x="41" y="8" width="3" height="3" fill="url(#textGrad)"/>
  <rect x="44" y="8" width="3" height="3" fill="url(#textGrad)"/>
  <rect x="38" y="11" width="3" height="3" fill="url(#textGrad)"/>
  <rect x="47" y="11" width="3" height="3" fill="url(#textGrad)"/>
  <rect x="38" y="14" width="3" height="3" fill="url(#textGrad)"/>
  <rect x="41" y="14" width="3" height="3" fill="url(#textGrad)"/>
  <rect x="44" y="14" width="3" height="3" fill="url(#textGrad)"/>
  <rect x="38" y="17" width="3" height="3" fill="url(#textGrad)"/>
  <rect x="47" y="17" width="3" height="3" fill="url(#textGrad)"/>
  <rect x="38" y="20" width="3" height="3" fill="url(#textGrad)"/>
  <rect x="47" y="20" width="3" height="3" fill="url(#textGrad)"/>
  <rect x="38" y="23" width="3" height="3" fill="url(#textGrad)"/>
  <rect x="41" y="23" width="3" height="3" fill="url(#textGrad)"/>
  <rect x="44" y="23" width="3" height="3" fill="url(#textGrad)"/>
  <!-- E -->
  <rect x="56" y="8" width="3" height="3" fill="url(#textGrad)"/>
  <rect x="59" y="8" width="3" height="3" fill="url(#textGrad)"/>
  <rect x="62" y="8" width="3" height="3" fill="url(#textGrad)"/>
  <rect x="65" y="8" width="3" height="3" fill="url(#textGrad)"/>
  <rect x="56" y="11" width="3" height="3" fill="url(#textGrad)"/>
  <rect x="56" y="14" width="3" height="3" fill="url(#textGrad)"/>
  <rect x="59" y="14" width="3" height="3" fill="url(#textGrad)"/>
  <rect x="62" y="14" width="3" height="3" fill="url(#textGrad)"/>
  <rect x="56" y="17" width="3" height="3" fill="url(#textGrad)"/>
  <rect x="56" y="20" width="3" height="3" fill="url(#textGrad)"/>
  <rect x="56" y="23" width="3" height="3" fill="url(#textGrad)"/>
  <rect x="59" y="23" width="3" height="3" fill="url(#textGrad)"/>
  <rect x="62" y="23" width="3" height="3" fill="url(#textGrad)"/>
  <rect x="65" y="23" width="3" height="3" fill="url(#textGrad)"/>
  <!-- L -->
  <rect x="74" y="8" width="3" height="3" fill="url(#textGrad)"/>
  <rect x="74" y="11" width="3" height="3" fill="url(#textGrad)"/>
  <rect x="74" y="14" width="3" height="3" fill="url(#textGrad)"/>
  <rect x="74" y="17" width="3" height="3" fill="url(#textGrad)"/>
  <rect x="74" y="20" width="3" height="3" fill="url(#textGrad)"/>
  <rect x="74" y="23" width="3" height="3" fill="url(#textGrad)"/>
  <rect x="77" y="23" width="3" height="3" fill="url(#textGrad)"/>
  <rect x="80" y="23" width="3" height="3" fill="url(#textGrad)"/>
  <rect x="83" y="23" width="3" height="3" fill="url(#textGrad)"/>
  <!-- I -->
  <rect x="92" y="8" width="3" height="3" fill="url(#textGrad)"/>
  <rect x="92" y="11" width="3" height="3" fill="url(#textGrad)"/>
  <rect x="92" y="14" width="3" height="3" fill="url(#textGrad)"/>
  <rect x="92" y="17" width="3" height="3" fill="url(#textGrad)"/>
  <rect x="92" y="20" width="3" height="3" fill="url(#textGrad)"/>
  <rect x="92" y="23" width="3" height="3" fill="url(#textGrad)"/>
  <!-- V -->
  <rect x="100" y="8" width="3" height="3" fill="url(#textGrad)"/>
  <rect x="100" y="11" width="3" height="3" fill="url(#textGrad)"/>
  <rect x="103" y="14" width="3" height="3" fill="url(#textGrad)"/>
  <rect x="103" y="17" width="3" height="3" fill="url(#textGrad)"/>
  <rect x="106" y="20" width="3" height="3" fill="url(#textGrad)"/>
  <rect x="109" y="23" width="3" height="3" fill="url(#textGrad)"/>
  <rect x="112" y="20" width="3" height="3" fill="url(#textGrad)"/>
  <rect x="115" y="17" width="3" height="3" fill="url(#textGrad)"/>
  <rect x="115" y="14" width="3" height="3" fill="url(#textGrad)"/>
  <rect x="118" y="11" width="3" height="3" fill="url(#textGrad)"/>
  <rect x="118" y="8" width="3" height="3" fill="url(#textGrad)"/>
  <!-- E -->
  <rect x="126" y="8" width="3" height="3" fill="url(#textGrad)"/>
  <rect x="129" y="8" width="3" height="3" fill="url(#textGrad)"/>
  <rect x="132" y="8" width="3" height="3" fill="url(#textGrad)"/>
  <rect x="135" y="8" width="3" height="3" fill="url(#textGrad)"/>
  <rect x="126" y="11" width="3" height="3" fill="url(#textGrad)"/>
  <rect x="126" y="14" width="3" height="3" fill="url(#textGrad)"/>
  <rect x="129" y="14" width="3" height="3" fill="url(#textGrad)"/>
  <rect x="132" y="14" width="3" height="3" fill="url(#textGrad)"/>
  <rect x="126" y="17" width="3" height="3" fill="url(#textGrad)"/>
  <rect x="126" y="20" width="3" height="3" fill="url(#textGrad)"/>
  <rect x="126" y="23" width="3" height="3" fill="url(#textGrad)"/>
  <rect x="129" y="23" width="3" height="3" fill="url(#textGrad)"/>
  <rect x="132" y="23" width="3" height="3" fill="url(#textGrad)"/>
  <rect x="135" y="23" width="3" height="3" fill="url(#textGrad)"/>
  <!-- LIVE indicator dot -->
  <rect x="146" y="30" width="4" height="4" fill="#EC4899"/>
  <rect x="152" y="30" width="4" height="4" fill="#EC4899"/>
  <rect x="158" y="30" width="4" height="4" fill="#EC4899"/>
  <!-- Decorative pixel sparkle -->
  <rect x="170" y="8" width="2" height="2" fill="#6366F1" opacity="0.6"/>
  <rect x="176" y="14" width="2" height="2" fill="#A855F7" opacity="0.4"/>
  <rect x="168" y="20" width="2" height="2" fill="#EC4899" opacity="0.5"/>
  <!-- Underline accent -->
  <rect x="4" y="34" width="135" height="2" fill="url(#textGrad)" opacity="0.3"/>
</svg>