<svg xmlns="http://www.w3.org/2000/svg" viewBox="0 0 48 48" width="48" height="48" shape-rendering="crispEdges">
  <defs>
    <linearGradient id="logoGrad" x1="0%" y1="0%" x2="100%" y2="100%">
      <stop offset="0%" stop-color="#6366F1"/>
      <stop offset="100%" stop-color="#EC4899"/>
    </linearGradient>
  </defs>
  <!-- Outer frame / shield shape -->
  <rect x="8" y="2" width="4" height="4" fill="url(#logoGrad)"/>
  <rect x="12" y="2" width="4" height="4" fill="url(#logoGrad)"/>
  <rect x="16" y="2" width="4" height="4" fill="url(#logoGrad)"/>
  <rect x="20" y="2" width="4" height="4" fill="url(#logoGrad)"/>
  <rect x="24" y="2" width="4" height="4" fill="url(#logoGrad)"/>
  <rect x="28" y="2" width="4" height="4" fill="url(#logoGrad)"/>
  <rect x="32" y="2" width="4" height="4" fill="url(#logoGrad)"/>
  <rect x="36" y="2" width="4" height="4" fill="url(#logoGrad)"/>
  <rect x="4" y="6" width="4" height="4" fill="url(#logoGrad)"/>
  <rect x="40" y="6" width="4" height="4" fill="url(#logoGrad)"/>
  <rect x="4" y="10" width="4" height="4" fill="url(#logoGrad)"/>
  <rect x="40" y="10" width="4" height="4" fill="url(#logoGrad)"/>
  <rect x="4" y="14" width="4" height="4" fill="url(#logoGrad)"/>
  <rect x="40" y="14" width="4" height="4" fill="url(#logoGrad)"/>
  <rect x="4" y="18" width="4" height="4" fill="url(#logoGrad)"/>
  <rect x="40" y="18" width="4" height="4" fill="url(#logoGrad)"/>
  <rect x="4" y="22" width="4" height="4" fill="url(#logoGrad)"/>
  <rect x="40" y="22" width="4" height="4" fill="url(#logoGrad)"/>
  <rect x="4" y="26" width="4" height="4" fill="url(#logoGrad)"/>
  <rect x="40" y="26" width="4" height="4" fill="url(#logoGrad)"/>
  <rect x="4" y="30" width="4" height="4" fill="url(#logoGrad)"/>
  <rect x="40" y="30" width="4" height="4" fill="url(#logoGrad)"/>
  <rect x="4" y="34" width="4" height="4" fill="url(#logoGrad)"/>
  <rect x="40" y="34" width="4" height="4" fill="url(#logoGrad)"/>
  <rect x="8" y="38" width="4" height="4" fill="url(#logoGrad)"/>
  <rect x="12" y="38" width="4" height="4" fill="url(#logoGrad)"/>
  <rect x="16" y="38" width="4" height="4" fill="url(#logoGrad)"/>
  <rect x="20" y="38" width="4" height="4" fill="url(#logoGrad)"/>
  <rect x="24" y="38" width="4" height="4" fill="url(#logoGrad)"/>
  <rect x="28" y="38" width="4" height="4" fill="url(#logoGrad)"/>
  <rect x="32" y="38" width="4" height="4" fill="url(#logoGrad)"/>
  <rect x="36" y="38" width="4" height="4" fill="url(#logoGrad)"/>
  <!-- Interior fill -->
  <rect x="8" y="6" width="32" height="32" fill="#1A1A2E"/>
  <!-- Code bracket < -->
  <rect x="10" y="14" width="3" height="3" fill="#FFFFFF"/>
  <rect x="13" y="11" width="3" height="3" fill="#FFFFFF"/>
  <rect x="13" y="17" width="3" height="3" fill="#FFFFFF"/>
  <rect x="16" y="8" width="3" height="3" fill="#FFFFFF"/>
  <rect x="16" y="20" width="3" height="3" fill="#FFFFFF"/>
  <!-- Play triangle -->
  <rect x="22" y="12" width="3" height="3" fill="url(#logoGrad)"/>
  <rect x="22" y="15" width="3" height="3" fill="url(#logoGrad)"/>
  <rect x="22" y="18" width="3" height="3" fill="url(#logoGrad)"/>
  <rect x="22" y="21" width="3" height="3" fill="url(#logoGrad)"/>
  <rect x="22" y="24" width="3" height="3" fill="url(#logoGrad)"/>
  <rect x="25" y="15" width="3" height="3" fill="url(#logoGrad)"/>
  <rect x="25" y="18" width="3" height="3" fill="url(#logoGrad)"/>
  <rect x="25" y="21" width="3" height="3" fill="url(#logoGrad)"/>
  <rect x="28" y="18" width="3" height="3" fill="url(#logoGrad)"/>
  <!-- Code bracket /> -->
  <!-- Slash -->
  <rect x="31" y="26" width="3" height="3" fill="#FFFFFF" opacity="0.7"/>
  <rect x="33" y="23" width="3" height="3" fill="#FFFFFF" opacity="0.7"/>
  <!-- > bracket -->
  <rect x="33" y="14" width="3" height="3" fill="#FFFFFF"/>
  <rect x="30" y="11" width="3" height="3" fill="#FFFFFF"/>
  <rect x="30" y="17" width="3" height="3" fill="#FFFFFF"/>
  <rect x="27" y="8" width="3" height="3" fill="#FFFFFF"/>
  <rect x="27" y="20" width="3" height="3" fill="#FFFFFF" opacity="0.7"/>
  <!-- Bottom text area: LIVE dot -->
  <rect x="18" y="32" width="3" height="3" fill="#EC4899"/>
  <rect x="22" y="32" width="3" height="3" fill="#EC4899"/>
  <rect x="26" y="32" width="3" height="3" fill="#EC4899"/>
</svg>