<svg xmlns="http://www.w3.org/2000/svg" viewBox="0 0 24 24" width="24" height="24" shape-rendering="crispEdges">
  <!-- Pixel lightning bolt for Bolt -->
  <rect x="14" y="0" width="2" height="2" fill="#F59E0B"/>
  <rect x="12" y="0" width="2" height="2" fill="#F59E0B"/>
  <rect x="12" y="2" width="2" height="2" fill="#F59E0B"/>
  <rect x="10" y="2" width="2" height="2" fill="#F59E0B"/>
  <rect x="10" y="4" width="2" height="2" fill="#FBBF24"/>
  <rect x="8" y="4" width="2" height="2" fill="#F59E0B"/>
  <rect x="8" y="6" width="2" height="2" fill="#FBBF24"/>
  <rect x="6" y="6" width="2" height="2" fill="#F59E0B"/>
  <rect x="6" y="8" width="2" height="2" fill="#FBBF24"/>
  <rect x="4" y="8" width="2" height="2" fill="#F59E0B"/>
  <!-- Middle bar -->
  <rect x="4" y="10" width="2" height="2" fill="#F59E0B"/>
  <rect x="6" y="10" width="2" height="2" fill="#FBBF24"/>
  <rect x="8" y="10" width="2" height="2" fill="#FBBF24"/>
  <rect x="10" y="10" width="2" height="2" fill="#FBBF24"/>
  <rect x="12" y="10" width="2" height="2" fill="#F59E0B"/>
  <rect x="14" y="10" width="2" height="2" fill="#F59E0B"/>
  <rect x="16" y="10" width="2" height="2" fill="#F59E0B"/>
  <rect x="18" y="10" width="2" height="2" fill="#D97706"/>
  <!-- Lower bolt -->
  <rect x="16" y="12" width="2" height="2" fill="#F59E0B"/>
  <rect x="14" y="12" width="2" height="2" fill="#FBBF24"/>
  <rect x="14" y="14" width="2" height="2" fill="#F59E0B"/>
  <rect x="12" y="14" width="2" height="2" fill="#FBBF24"/>
  <rect x="12" y="16" width="2" height="2" fill="#F59E0B"/>
  <rect x="10" y="16" width="2" height="2" fill="#FBBF24"/>
  <rect x="10" y="18" width="2" height="2" fill="#F59E0B"/>
  <rect x="8" y="18" width="2" height="2" fill="#FBBF24"/>
  <rect x="8" y="20" width="2" height="2" fill="#F59E0B"/>
  <rect x="10" y="20" width="2" height="2" fill="#F59E0B"/>
  <rect x="10" y="22" width="2" height="2" fill="#D97706"/>
</svg>