<svg xmlns="http://www.w3.org/2000/svg" viewBox="0 0 24 24" width="24" height="24" shape-rendering="crispEdges">
  <!-- Pixel V0 text with dark background -->
  <!-- Dark background -->
  <rect x="0" y="0" width="24" height="24" fill="#111111"/>
  <!-- Border -->
  <rect x="0" y="0" width="24" height="2" fill="#333333"/>
  <rect x="0" y="22" width="24" height="2" fill="#333333"/>
  <rect x="0" y="0" width="2" height="24" fill="#333333"/>
  <rect x="22" y="0" width="2" height="24" fill="#333333"/>
  <!-- Letter V -->
  <rect x="3" y="7" width="2" height="2" fill="#FFFFFF"/>
  <rect x="3" y="9" width="2" height="2" fill="#FFFFFF"/>
  <rect x="5" y="11" width="2" height="2" fill="#FFFFFF"/>
  <rect x="5" y="13" width="2" height="2" fill="#FFFFFF"/>
  <rect x="7" y="15" width="2" height="2" fill="#FFFFFF"/>
  <rect x="9" y="13" width="2" height="2" fill="#FFFFFF"/>
  <rect x="9" y="11" width="2" height="2" fill="#FFFFFF"/>
  <rect x="11" y="9" width="2" height="2" fill="#FFFFFF"/>
  <rect x="11" y="7" width="2" height="2" fill="#FFFFFF"/>
  <!-- Number 0 -->
  <rect x="15" y="7" width="2" height="2" fill="#FFFFFF"/>
  <rect x="17" y="7" width="2" height="2" fill="#FFFFFF"/>
  <rect x="19" y="7" width="2" height="2" fill="#FFFFFF"/>
  <rect x="15" y="9" width="2" height="2" fill="#FFFFFF"/>
  <rect x="19" y="9" width="2" height="2" fill="#FFFFFF"/>
  <rect x="15" y="11" width="2" height="2" fill="#FFFFFF"/>
  <rect x="19" y="11" width="2" height="2" fill="#FFFFFF"/>
  <rect x="15" y="13" width="2" height="2" fill="#FFFFFF"/>
  <rect x="19" y="13" width="2" height="2" fill="#FFFFFF"/>
  <rect x="15" y="15" width="2" height="2" fill="#FFFFFF"/>
  <rect x="17" y="15" width="2" height="2" fill="#FFFFFF"/>
  <rect x="19" y="15" width="2" height="2" fill="#FFFFFF"/>
</svg>