<svg xmlns="http://www.w3.org/2000/svg" viewBox="0 0 24 24" width="24" height="24" shape-rendering="crispEdges">
  <!-- Pixel wrench / terminal hybrid -->
  <!-- Terminal window frame -->
  <rect x="2" y="2" width="2" height="2" fill="#607D8B"/>
  <rect x="4" y="2" width="2" height="2" fill="#607D8B"/>
  <rect x="6" y="2" width="2" height="2" fill="#607D8B"/>
  <rect x="8" y="2" width="2" height="2" fill="#607D8B"/>
  <rect x="10" y="2" width="2" height="2" fill="#607D8B"/>
  <rect x="12" y="2" width="2" height="2" fill="#607D8B"/>
  <rect x="14" y="2" width="2" height="2" fill="#607D8B"/>
  <rect x="16" y="2" width="2" height="2" fill="#607D8B"/>
  <rect x="18" y="2" width="2" height="2" fill="#607D8B"/>
  <rect x="20" y="2" width="2" height="2" fill="#607D8B"/>
  <!-- Title bar dots -->
  <rect x="4" y="3" width="1" height="1" fill="#E74C3C"/>
  <rect x="6" y="3" width="1" height="1" fill="#FFD93D"/>
  <rect x="8" y="3" width="1" height="1" fill="#2ECC71"/>
  <!-- Frame sides -->
  <rect x="2" y="4" width="2" height="2" fill="#607D8B"/>
  <rect x="20" y="4" width="2" height="2" fill="#607D8B"/>
  <rect x="2" y="6" width="2" height="2" fill="#607D8B"/>
  <rect x="20" y="6" width="2" height="2" fill="#607D8B"/>
  <rect x="2" y="8" width="2" height="2" fill="#607D8B"/>
  <rect x="20" y="8" width="2" height="2" fill="#607D8B"/>
  <rect x="2" y="10" width="2" height="2" fill="#607D8B"/>
  <rect x="20" y="10" width="2" height="2" fill="#607D8B"/>
  <rect x="2" y="12" width="2" height="2" fill="#607D8B"/>
  <rect x="20" y="12" width="2" height="2" fill="#607D8B"/>
  <rect x="2" y="14" width="2" height="2" fill="#607D8B"/>
  <rect x="20" y="14" width="2" height="2" fill="#607D8B"/>
  <rect x="2" y="16" width="2" height="2" fill="#607D8B"/>
  <rect x="20" y="16" width="2" height="2" fill="#607D8B"/>
  <rect x="2" y="18" width="2" height="2" fill="#607D8B"/>
  <rect x="20" y="18" width="2" height="2" fill="#607D8B"/>
  <!-- Bottom frame -->
  <rect x="2" y="20" width="2" height="2" fill="#607D8B"/>
  <rect x="4" y="20" width="2" height="2" fill="#607D8B"/>
  <rect x="6" y="20" width="2" height="2" fill="#607D8B"/>
  <rect x="8" y="20" width="2" height="2" fill="#607D8B"/>
  <rect x="10" y="20" width="2" height="2" fill="#607D8B"/>
  <rect x="12" y="20" width="2" height="2" fill="#607D8B"/>
  <rect x="14" y="20" width="2" height="2" fill="#607D8B"/>
  <rect x="16" y="20" width="2" height="2" fill="#607D8B"/>
  <rect x="18" y="20" width="2" height="2" fill="#607D8B"/>
  <rect x="20" y="20" width="2" height="2" fill="#607D8B"/>
  <!-- Dark interior -->
  <rect x="4" y="4" width="16" height="16" fill="#263238"/>
  <!-- Terminal prompt > -->
  <rect x="5" y="7" width="2" height="2" fill="#4CAF50"/>
  <rect x="7" y="9" width="2" height="2" fill="#4CAF50"/>
  <rect x="5" y="11" width="2" height="2" fill="#4CAF50"/>
  <!-- Cursor block -->
  <rect x="10" y="9" width="2" height="2" fill="#607D8B"/>
  <!-- Wrench pixel art overlay -->
  <rect x="13" y="13" width="2" height="2" fill="#90A4AE"/>
  <rect x="15" y="13" width="2" height="2" fill="#90A4AE"/>
  <rect x="11" y="15" width="2" height="2" fill="#90A4AE"/>
  <rect x="13" y="15" width="2" height="2" fill="#B0BEC5"/>
  <rect x="15" y="15" width="2" height="2" fill="#90A4AE"/>
  <rect x="17" y="15" width="2" height="2" fill="#90A4AE"/>
  <rect x="13" y="17" width="2" height="2" fill="#90A4AE"/>
  <rect x="15" y="17" width="2" height="2" fill="#90A4AE"/>
</svg>