<svg xmlns="http://www.w3.org/2000/svg" viewBox="0 0 24 24" width="24" height="24" shape-rendering="crispEdges">
  <!-- Pixel graduation cap -->
  <!-- Cap top (diamond/rhombus shape) -->
  <rect x="10" y="2" width="2" height="2" fill="#1ABC9C"/>
  <rect x="12" y="2" width="2" height="2" fill="#1ABC9C"/>
  <rect x="8" y="4" width="2" height="2" fill="#1ABC9C"/>
  <rect x="10" y="4" width="2" height="2" fill="#16A085"/>
  <rect x="12" y="4" width="2" height="2" fill="#16A085"/>
  <rect x="14" y="4" width="2" height="2" fill="#1ABC9C"/>
  <rect x="6" y="6" width="2" height="2" fill="#1ABC9C"/>
  <rect x="8" y="6" width="2" height="2" fill="#16A085"/>
  <rect x="10" y="6" width="2" height="2" fill="#16A085"/>
  <rect x="12" y="6" width="2" height="2" fill="#16A085"/>
  <rect x="14" y="6" width="2" height="2" fill="#16A085"/>
  <rect x="16" y="6" width="2" height="2" fill="#1ABC9C"/>
  <rect x="4" y="8" width="2" height="2" fill="#1ABC9C"/>
  <rect x="6" y="8" width="2" height="2" fill="#16A085"/>
  <rect x="8" y="8" width="2" height="2" fill="#16A085"/>
  <rect x="10" y="8" width="2" height="2" fill="#148F77"/>
  <rect x="12" y="8" width="2" height="2" fill="#148F77"/>
  <rect x="14" y="8" width="2" height="2" fill="#16A085"/>
  <rect x="16" y="8" width="2" height="2" fill="#16A085"/>
  <rect x="18" y="8" width="2" height="2" fill="#1ABC9C"/>
  <rect x="2" y="10" width="2" height="2" fill="#1ABC9C"/>
  <rect x="4" y="10" width="2" height="2" fill="#16A085"/>
  <rect x="6" y="10" width="2" height="2" fill="#148F77"/>
  <rect x="8" y="10" width="2" height="2" fill="#148F77"/>
  <rect x="10" y="10" width="2" height="2" fill="#148F77"/>
  <rect x="12" y="10" width="2" height="2" fill="#148F77"/>
  <rect x="14" y="10" width="2" height="2" fill="#148F77"/>
  <rect x="16" y="10" width="2" height="2" fill="#148F77"/>
  <rect x="18" y="10" width="2" height="2" fill="#16A085"/>
  <rect x="20" y="10" width="2" height="2" fill="#1ABC9C"/>
  <!-- Band below cap -->
  <rect x="6" y="12" width="2" height="2" fill="#1ABC9C"/>
  <rect x="8" y="12" width="2" height="2" fill="#1ABC9C"/>
  <rect x="10" y="12" width="2" height="2" fill="#1ABC9C"/>
  <rect x="12" y="12" width="2" height="2" fill="#1ABC9C"/>
  <rect x="14" y="12" width="2" height="2" fill="#1ABC9C"/>
  <rect x="16" y="12" width="2" height="2" fill="#1ABC9C"/>
  <!-- Draping sides -->
  <rect x="6" y="14" width="2" height="2" fill="#16A085"/>
  <rect x="16" y="14" width="2" height="2" fill="#16A085"/>
  <rect x="8" y="16" width="2" height="2" fill="#16A085"/>
  <rect x="10" y="16" width="2" height="2" fill="#16A085"/>
  <rect x="12" y="16" width="2" height="2" fill="#16A085"/>
  <rect x="14" y="16" width="2" height="2" fill="#16A085"/>
  <!-- Tassel -->
  <rect x="20" y="10" width="2" height="2" fill="#FFD93D"/>
  <rect x="20" y="12" width="2" height="2" fill="#FFD93D"/>
  <rect x="20" y="14" width="2" height="2" fill="#FFD93D"/>
  <rect x="20" y="16" width="2" height="2" fill="#FFD93D"/>
  <rect x="20" y="18" width="2" height="2" fill="#FFD93D"/>
  <rect x="18" y="18" width="2" height="2" fill="#FFD93D"/>
  <rect x="22" y="18" width="2" height="2" fill="#FFD93D"/>
</svg>