<svg xmlns="http://www.w3.org/2000/svg" viewBox="0 0 24 24" width="24" height="24" shape-rendering="crispEdges">
  <!-- Pixel coin with dollar sign -->
  <!-- Coin outer ring -->
  <rect x="8" y="2" width="2" height="2" fill="#2ECC71"/>
  <rect x="10" y="2" width="2" height="2" fill="#2ECC71"/>
  <rect x="12" y="2" width="2" height="2" fill="#2ECC71"/>
  <rect x="14" y="2" width="2" height="2" fill="#2ECC71"/>
  <rect x="6" y="4" width="2" height="2" fill="#2ECC71"/>
  <rect x="16" y="4" width="2" height="2" fill="#2ECC71"/>
  <rect x="4" y="6" width="2" height="2" fill="#2ECC71"/>
  <rect x="18" y="6" width="2" height="2" fill="#2ECC71"/>
  <rect x="4" y="8" width="2" height="2" fill="#2ECC71"/>
  <rect x="18" y="8" width="2" height="2" fill="#2ECC71"/>
  <rect x="2" y="8" width="2" height="2" fill="#27AE60"/>
  <rect x="20" y="8" width="2" height="2" fill="#27AE60"/>
  <rect x="2" y="10" width="2" height="2" fill="#27AE60"/>
  <rect x="20" y="10" width="2" height="2" fill="#27AE60"/>
  <rect x="2" y="12" width="2" height="2" fill="#27AE60"/>
  <rect x="20" y="12" width="2" height="2" fill="#27AE60"/>
  <rect x="4" y="14" width="2" height="2" fill="#2ECC71"/>
  <rect x="18" y="14" width="2" height="2" fill="#2ECC71"/>
  <rect x="4" y="16" width="2" height="2" fill="#2ECC71"/>
  <rect x="18" y="16" width="2" height="2" fill="#2ECC71"/>
  <rect x="6" y="18" width="2" height="2" fill="#2ECC71"/>
  <rect x="16" y="18" width="2" height="2" fill="#2ECC71"/>
  <rect x="8" y="20" width="2" height="2" fill="#2ECC71"/>
  <rect x="10" y="20" width="2" height="2" fill="#2ECC71"/>
  <rect x="12" y="20" width="2" height="2" fill="#2ECC71"/>
  <rect x="14" y="20" width="2" height="2" fill="#2ECC71"/>
  <!-- Interior fill -->
  <rect x="6" y="6" width="12" height="12" fill="#27AE60" opacity="0.3"/>
  <!-- Dollar sign $ -->
  <rect x="11" y="5" width="2" height="2" fill="#FFFFFF"/>
  <rect x="9" y="7" width="2" height="2" fill="#FFFFFF"/>
  <rect x="11" y="7" width="2" height="2" fill="#FFFFFF"/>
  <rect x="13" y="7" width="2" height="2" fill="#FFFFFF"/>
  <rect x="9" y="9" width="2" height="2" fill="#FFFFFF"/>
  <rect x="11" y="9" width="2" height="2" fill="#FFFFFF"/>
  <rect x="11" y="11" width="2" height="2" fill="#FFFFFF"/>
  <rect x="13" y="11" width="2" height="2" fill="#FFFFFF"/>
  <rect x="9" y="13" width="2" height="2" fill="#FFFFFF"/>
  <rect x="11" y="13" width="2" height="2" fill="#FFFFFF"/>
  <rect x="13" y="13" width="2" height="2" fill="#FFFFFF"/>
  <rect x="11" y="15" width="2" height="2" fill="#FFFFFF"/>
</svg>