<svg xmlns="http://www.w3.org/2000/svg" viewBox="0 0 24 24" width="24" height="24" shape-rendering="crispEdges">
  <!-- Pixel game controller -->
  <!-- Controller body top -->
  <rect x="6" y="6" width="2" height="2" fill="#E74C3C"/>
  <rect x="8" y="6" width="2" height="2" fill="#E74C3C"/>
  <rect x="10" y="6" width="2" height="2" fill="#E74C3C"/>
  <rect x="12" y="6" width="2" height="2" fill="#E74C3C"/>
  <rect x="14" y="6" width="2" height="2" fill="#E74C3C"/>
  <rect x="16" y="6" width="2" height="2" fill="#E74C3C"/>
  <!-- Controller body middle -->
  <rect x="4" y="8" width="2" height="2" fill="#E74C3C"/>
  <rect x="6" y="8" width="2" height="2" fill="#C0392B"/>
  <rect x="8" y="8" width="2" height="2" fill="#C0392B"/>
  <rect x="10" y="8" width="2" height="2" fill="#C0392B"/>
  <rect x="12" y="8" width="2" height="2" fill="#C0392B"/>
  <rect x="14" y="8" width="2" height="2" fill="#C0392B"/>
  <rect x="16" y="8" width="2" height="2" fill="#C0392B"/>
  <rect x="18" y="8" width="2" height="2" fill="#E74C3C"/>
  <!-- Middle row -->
  <rect x="2" y="10" width="2" height="2" fill="#E74C3C"/>
  <rect x="4" y="10" width="2" height="2" fill="#C0392B"/>
  <rect x="6" y="10" width="2" height="2" fill="#C0392B"/>
  <rect x="8" y="10" width="2" height="2" fill="#C0392B"/>
  <rect x="10" y="10" width="2" height="2" fill="#C0392B"/>
  <rect x="12" y="10" width="2" height="2" fill="#C0392B"/>
  <rect x="14" y="10" width="2" height="2" fill="#C0392B"/>
  <rect x="16" y="10" width="2" height="2" fill="#C0392B"/>
  <rect x="18" y="10" width="2" height="2" fill="#C0392B"/>
  <rect x="20" y="10" width="2" height="2" fill="#E74C3C"/>
  <!-- Lower body -->
  <rect x="2" y="12" width="2" height="2" fill="#E74C3C"/>
  <rect x="4" y="12" width="2" height="2" fill="#C0392B"/>
  <rect x="6" y="12" width="2" height="2" fill="#C0392B"/>
  <rect x="8" y="12" width="2" height="2" fill="#E74C3C"/>
  <rect x="10" y="12" width="2" height="2" fill="#E74C3C"/>
  <rect x="12" y="12" width="2" height="2" fill="#E74C3C"/>
  <rect x="14" y="12" width="2" height="2" fill="#E74C3C"/>
  <rect x="16" y="12" width="2" height="2" fill="#C0392B"/>
  <rect x="18" y="12" width="2" height="2" fill="#C0392B"/>
  <rect x="20" y="12" width="2" height="2" fill="#E74C3C"/>
  <!-- Grips -->
  <rect x="2" y="14" width="2" height="2" fill="#E74C3C"/>
  <rect x="4" y="14" width="2" height="2" fill="#E74C3C"/>
  <rect x="18" y="14" width="2" height="2" fill="#E74C3C"/>
  <rect x="20" y="14" width="2" height="2" fill="#E74C3C"/>
  <rect x="4" y="16" width="2" height="2" fill="#E74C3C"/>
  <rect x="18" y="16" width="2" height="2" fill="#E74C3C"/>
  <!-- D-pad -->
  <rect x="6" y="9" width="2" height="2" fill="#FFFFFF"/>
  <rect x="4" y="11" width="2" height="2" fill="#FFFFFF"/>
  <rect x="6" y="11" width="2" height="2" fill="#2C2C2C"/>
  <rect x="8" y="11" width="2" height="2" fill="#FFFFFF"/>
  <rect x="6" y="13" width="2" height="2" fill="#FFFFFF"/>
  <!-- Action buttons -->
  <rect x="16" y="9" width="2" height="2" fill="#FFD93D"/>
  <rect x="18" y="11" width="2" height="2" fill="#4D96FF"/>
  <rect x="14" y="11" width="2" height="2" fill="#6BCB77"/>
  <rect x="16" y="13" width="2" height="2" fill="#FF6B6B"/>
</svg>