<svg xmlns="http://www.w3.org/2000/svg" viewBox="0 0 24 24" width="24" height="24" shape-rendering="crispEdges">
  <!-- Pixel lightning bolt -->
  <rect x="12" y="1" width="2" height="2" fill="#6BCB77"/>
  <rect x="10" y="1" width="2" height="2" fill="#6BCB77"/>
  <rect x="10" y="3" width="2" height="2" fill="#6BCB77"/>
  <rect x="8" y="3" width="2" height="2" fill="#6BCB77"/>
  <rect x="8" y="5" width="2" height="2" fill="#6BCB77"/>
  <rect x="6" y="5" width="2" height="2" fill="#6BCB77"/>
  <rect x="6" y="7" width="2" height="2" fill="#6BCB77"/>
  <rect x="4" y="7" width="2" height="2" fill="#6BCB77"/>
  <rect x="4" y="9" width="2" height="2" fill="#6BCB77"/>
  <!-- Middle bar -->
  <rect x="6" y="9" width="2" height="2" fill="#6BCB77"/>
  <rect x="8" y="9" width="2" height="2" fill="#6BCB77"/>
  <rect x="10" y="9" width="2" height="2" fill="#6BCB77"/>
  <rect x="12" y="9" width="2" height="2" fill="#6BCB77"/>
  <rect x="14" y="9" width="2" height="2" fill="#6BCB77"/>
  <rect x="16" y="9" width="2" height="2" fill="#6BCB77"/>
  <!-- Lower bolt -->
  <rect x="14" y="11" width="2" height="2" fill="#6BCB77"/>
  <rect x="12" y="11" width="2" height="2" fill="#6BCB77"/>
  <rect x="12" y="13" width="2" height="2" fill="#6BCB77"/>
  <rect x="10" y="13" width="2" height="2" fill="#6BCB77"/>
  <rect x="10" y="15" width="2" height="2" fill="#6BCB77"/>
  <rect x="8" y="15" width="2" height="2" fill="#6BCB77"/>
  <rect x="8" y="17" width="2" height="2" fill="#6BCB77"/>
  <rect x="10" y="17" width="2" height="2" fill="#6BCB77"/>
  <rect x="10" y="19" width="2" height="2" fill="#6BCB77"/>
  <rect x="12" y="19" width="2" height="2" fill="#6BCB77"/>
  <rect x="12" y="21" width="2" height="2" fill="#6BCB77"/>
  <!-- Highlight -->
  <rect x="12" y="1" width="2" height="2" fill="#8BEB97"/>
  <rect x="10" y="3" width="2" height="2" fill="#8BEB97"/>
  <rect x="14" y="9" width="2" height="2" fill="#8BEB97"/>
  <rect x="16" y="9" width="2" height="2" fill="#8BEB97"/>
</svg>