<svg xmlns="http://www.w3.org/2000/svg" viewBox="0 0 24 24" width="24" height="24" shape-rendering="crispEdges">
  <!-- Pixel play button / camera -->
  <!-- Outer rounded rectangle -->
  <rect x="2" y="4" width="2" height="2" fill="#4D96FF"/>
  <rect x="4" y="2" width="2" height="2" fill="#4D96FF"/>
  <rect x="6" y="2" width="2" height="2" fill="#4D96FF"/>
  <rect x="8" y="2" width="2" height="2" fill="#4D96FF"/>
  <rect x="10" y="2" width="2" height="2" fill="#4D96FF"/>
  <rect x="12" y="2" width="2" height="2" fill="#4D96FF"/>
  <rect x="14" y="2" width="2" height="2" fill="#4D96FF"/>
  <rect x="16" y="2" width="2" height="2" fill="#4D96FF"/>
  <rect x="18" y="2" width="2" height="2" fill="#4D96FF"/>
  <rect x="20" y="4" width="2" height="2" fill="#4D96FF"/>
  <rect x="2" y="6" width="2" height="12" fill="#4D96FF"/>
  <rect x="20" y="6" width="2" height="12" fill="#4D96FF"/>
  <rect x="2" y="18" width="2" height="2" fill="#4D96FF"/>
  <rect x="4" y="20" width="2" height="2" fill="#4D96FF"/>
  <rect x="6" y="20" width="2" height="2" fill="#4D96FF"/>
  <rect x="8" y="20" width="2" height="2" fill="#4D96FF"/>
  <rect x="10" y="20" width="2" height="2" fill="#4D96FF"/>
  <rect x="12" y="20" width="2" height="2" fill="#4D96FF"/>
  <rect x="14" y="20" width="2" height="2" fill="#4D96FF"/>
  <rect x="16" y="20" width="2" height="2" fill="#4D96FF"/>
  <rect x="18" y="20" width="2" height="2" fill="#4D96FF"/>
  <rect x="20" y="18" width="2" height="2" fill="#4D96FF"/>
  <!-- Fill interior -->
  <rect x="4" y="4" width="16" height="16" fill="#3A7BE0" opacity="0.3"/>
  <!-- Play triangle -->
  <rect x="9" y="7" width="2" height="2" fill="#FFFFFF"/>
  <rect x="9" y="9" width="2" height="2" fill="#FFFFFF"/>
  <rect x="9" y="11" width="2" height="2" fill="#FFFFFF"/>
  <rect x="9" y="13" width="2" height="2" fill="#FFFFFF"/>
  <rect x="9" y="15" width="2" height="2" fill="#FFFFFF"/>
  <rect x="11" y="9" width="2" height="2" fill="#FFFFFF"/>
  <rect x="11" y="11" width="2" height="2" fill="#FFFFFF"/>
  <rect x="11" y="13" width="2" height="2" fill="#FFFFFF"/>
  <rect x="13" y="11" width="2" height="2" fill="#FFFFFF"/>
</svg>